<svg xmlns="http://www.w3.org/2000/svg" viewBox="0 0 32 32" fill="none">
  <defs>
    <linearGradient id="bg" x1="0" y1="0" x2="32" y2="32" gradientUnits="userSpaceOnUse">
      <stop offset="0%" stop-color="#14b8a6"/>
      <stop offset="100%" stop-color="#22d3ee"/>
    </linearGradient>
    <linearGradient id="cap" x1="10" y1="8" x2="22" y2="20" gradientUnits="userSpaceOnUse">
      <stop offset="0%" stop-color="#ffffff"/>
      <stop offset="100%" stop-color="#e0f2fe"/>
    </linearGradient>
  </defs>
  <!-- Rounded square background -->
  <rect width="32" height="32" rx="8" fill="url(#bg)"/>
  <!-- Graduation cap: top -->
  <path d="M16 7L5 13l11 6 11-6L16 7z" fill="url(#cap)" fill-opacity="0.95"/>
  <!-- Graduation cap: tassel -->
  <path d="M16 13v9" stroke="white" stroke-width="1.5" stroke-linecap="round" stroke-opacity="0.8"/>
  <circle cx="16" cy="22.5" r="1.5" fill="white" fill-opacity="0.8"/>
  <!-- Graduation cap: brim -->
  <path d="M24 13v6c0 2-3.5 4-8 4s-8-2-8-4v-6" stroke="white" stroke-width="1.5" fill="none" stroke-opacity="0.7" stroke-linecap="round"/>
  <!-- AI sparkle -->
  <path d="M25 6l1 2 2 1-2 1-1 2-1-2-2-1 2-1 1-2z" fill="white" fill-opacity="0.9"/>
  <path d="M6 24l0.7 1.3 1.3 0.7-1.3 0.7L6 28l-0.7-1.3L4 26l1.3-0.7L6 24z" fill="white" fill-opacity="0.6"/>
</svg>
